<svg width="24" height="16" viewBox="0 0 24 16" fill="none" xmlns="http://www.w3.org/2000/svg">
<path d="M23.3351 8.94781C23.1664 7.05359 22.8884 6.68469 22.7834 6.54594C22.542 6.22531 22.1558 6.01578 21.747 5.79594C21.7239 5.78371 21.7039 5.76629 21.6887 5.74503C21.6735 5.72378 21.6634 5.69927 21.6593 5.67345C21.6551 5.64763 21.6571 5.62121 21.6649 5.59626C21.6727 5.57131 21.6862 5.54852 21.7044 5.52969C21.7801 5.45292 21.8382 5.36067 21.8749 5.25928C21.9116 5.15789 21.9258 5.04977 21.9167 4.94234C21.8991 4.75185 21.8105 4.57494 21.6685 4.44669C21.5266 4.31845 21.3416 4.24825 21.1503 4.25H20.4191C20.3877 4.25019 20.3564 4.25222 20.3253 4.25609C20.304 4.24683 20.2818 4.23946 20.2592 4.23406C19.8261 3.31859 19.2331 2.06516 18.0041 1.45344C16.1811 0.546875 12.823 0.5 12.1667 0.5C11.5105 0.5 8.15234 0.546875 6.33171 1.45203C5.10265 2.06375 4.50968 3.31719 4.07656 4.23266L4.07281 4.24016C4.0512 4.24319 4.02999 4.24854 4.00953 4.25609C3.97842 4.25222 3.94712 4.25019 3.91578 4.25H3.18312C2.99182 4.24825 2.80684 4.31845 2.66488 4.44669C2.52292 4.57494 2.43434 4.75185 2.41671 4.94234C2.40839 5.04952 2.4233 5.15723 2.46043 5.25811C2.49757 5.359 2.55604 5.45067 2.63187 5.52688C2.65001 5.54571 2.66352 5.5685 2.67135 5.59345C2.67917 5.6184 2.68109 5.64482 2.67696 5.67064C2.67282 5.69646 2.66274 5.72096 2.64751 5.74222C2.63229 5.76348 2.61233 5.7809 2.58921 5.79313C2.18046 6.01437 1.79234 6.22391 1.55281 6.54313C1.44781 6.68375 1.17031 7.05078 1.00109 8.945C0.907338 10.0109 0.893276 11.1144 0.966869 11.825C1.12109 13.3016 1.41031 14.1941 1.42249 14.2311C1.46687 14.3659 1.54857 14.4853 1.65809 14.5755C1.76762 14.6656 1.90047 14.7229 2.04124 14.7406V14.75C2.04124 14.9489 2.12026 15.1397 2.26091 15.2803C2.40157 15.421 2.59233 15.5 2.79124 15.5H5.41624C5.61516 15.5 5.80592 15.421 5.94657 15.2803C6.08723 15.1397 6.16624 14.9489 6.16624 14.75C6.56984 14.75 6.85062 14.6778 7.14828 14.6009C7.57802 14.4851 8.01728 14.4081 8.46078 14.3708C9.89093 14.2344 11.3131 14.1875 12.1667 14.1875C13.003 14.1875 14.488 14.2344 15.9205 14.3708C16.3657 14.4082 16.8067 14.4855 17.2381 14.6019C17.5231 14.675 17.7936 14.7425 18.1681 14.7495C18.1681 14.9484 18.2471 15.1392 18.3878 15.2799C18.5284 15.4205 18.7192 15.4995 18.9181 15.4995H21.5431C21.742 15.4995 21.9328 15.4205 22.0734 15.2799C22.2141 15.1392 22.2931 14.9484 22.2931 14.7495V14.7439C22.4342 14.7265 22.5675 14.6694 22.6774 14.5792C22.7872 14.489 22.8692 14.3694 22.9137 14.2344C22.9259 14.1973 23.2151 13.3048 23.3694 11.8283C23.443 11.1172 23.4298 10.0156 23.3351 8.94781ZM5.43218 4.87391C5.80718 4.07703 6.23609 3.17516 6.99968 2.795C8.10312 2.24563 10.3902 1.99812 12.1667 1.99812C13.9433 1.99812 16.2303 2.24375 17.3337 2.795C18.0973 3.17516 18.5244 4.0775 18.9012 4.87391L18.9481 4.97563C18.9755 5.03353 18.9876 5.0975 18.9833 5.16142C18.979 5.22534 18.9583 5.28708 18.9234 5.34076C18.8884 5.39445 18.8403 5.43827 18.7835 5.46806C18.7268 5.49785 18.6634 5.51261 18.5994 5.51094C17.0417 5.46875 13.7605 5.33375 12.1667 5.33375C10.573 5.33375 7.29171 5.47203 5.73171 5.51422C5.66767 5.51589 5.60426 5.50113 5.54754 5.47134C5.49082 5.44155 5.44268 5.39773 5.40771 5.34405C5.37273 5.29037 5.3521 5.22862 5.34777 5.1647C5.34343 5.10078 5.35555 5.03681 5.38296 4.97891C5.39937 4.94422 5.41671 4.90906 5.43218 4.87391ZM5.9914 8.60656C5.18506 8.70361 4.37356 8.75151 3.5614 8.75C3.06453 8.75 2.55218 8.60938 2.45703 8.16687C2.39187 7.86922 2.3989 7.70188 2.43406 7.53359C2.46359 7.39062 2.51046 7.28656 2.74484 7.25C3.35421 7.15625 3.69499 7.27391 4.69249 7.56781C5.3539 7.76234 5.83109 8.02156 6.10296 8.22687C6.23937 8.32812 6.16671 8.5925 5.9914 8.60656ZM16.3686 12.4503C15.7517 12.5206 14.518 12.4948 12.1808 12.4948C9.84359 12.4948 8.61031 12.5206 7.99343 12.4503C7.35687 12.3795 6.54546 11.7777 7.09952 11.2414C7.46843 10.888 8.32906 10.6236 9.47515 10.475C10.6212 10.3264 11.1064 10.25 12.1761 10.25C13.2458 10.25 13.6817 10.2969 14.877 10.4755C16.0723 10.6541 16.9756 10.9217 17.2526 11.2419C17.758 11.8156 17.0047 12.3758 16.3686 12.4531V12.4503ZM21.8764 8.16641C21.7826 8.61078 21.267 8.74953 20.772 8.74953C19.9443 8.74972 19.1173 8.70183 18.2951 8.60609C18.1517 8.5925 18.0851 8.34078 18.2305 8.22641C18.4981 8.01594 18.9805 7.76188 19.6409 7.56734C20.6384 7.27344 21.2136 7.15578 21.7076 7.25375C21.8281 7.27766 21.8919 7.40703 21.8994 7.48812C21.9324 7.71392 21.9246 7.94383 21.8764 8.16687V8.16641Z" fill="#AEAEAE"/>
</svg>
