<svg width="20" height="21" viewBox="0 0 20 21" fill="none" xmlns="http://www.w3.org/2000/svg">
<path d="M5 19.5C2.79086 19.5 1 17.7091 1 15.5V3.5C1 2.39543 1.89543 1.5 3 1.5H7C8.10457 1.5 9 2.39543 9 3.5V15.5C9 17.7091 7.20914 19.5 5 19.5ZM5 19.5H17C18.1046 19.5 19 18.6046 19 17.5V13.5C19 12.3954 18.1046 11.5 17 11.5H14.6569M9.00002 5.84312L10.6569 4.18629C11.4379 3.40524 12.7042 3.40524 13.4853 4.18629L16.3137 7.01472C17.0948 7.79577 17.0948 9.0621 16.3137 9.84315L7.82843 18.3284M5 15.5H5.01" stroke="#AEAEAE" stroke-width="2" stroke-linecap="round" stroke-linejoin="round"/>
</svg>
