<svg width="20" height="21" viewBox="0 0 20 21" fill="none" xmlns="http://www.w3.org/2000/svg">
<path d="M8.32463 2.81731C8.75103 1.0609 11.249 1.0609 11.6754 2.81731C11.9508 3.95193 13.2507 4.49038 14.2478 3.88285C15.7913 2.94239 17.5576 4.7087 16.6172 6.25218C16.0096 7.24925 16.5481 8.54918 17.6827 8.82463C19.4391 9.25103 19.4391 11.749 17.6827 12.1754C16.5481 12.4508 16.0096 13.7507 16.6172 14.7478C17.5576 16.2913 15.7913 18.0576 14.2478 17.1172C13.2507 16.5096 11.9508 17.0481 11.6754 18.1827C11.249 19.9391 8.75103 19.9391 8.32463 18.1827C8.04918 17.0481 6.74926 16.5096 5.75219 17.1172C4.2087 18.0576 2.44239 16.2913 3.38285 14.7478C3.99038 13.7507 3.45193 12.4508 2.31731 12.1754C0.560897 11.749 0.560897 9.25103 2.31731 8.82463C3.45193 8.54918 3.99037 7.24926 3.38285 6.25218C2.44239 4.7087 4.2087 2.94239 5.75219 3.88285C6.74926 4.49037 8.04918 3.95193 8.32463 2.81731Z" stroke="#AEAEAE" stroke-width="2" stroke-linecap="round" stroke-linejoin="round"/>
<path d="M13 10.5C13 12.1569 11.6569 13.5 10 13.5C8.34315 13.5 7 12.1569 7 10.5C7 8.84315 8.34315 7.5 10 7.5C11.6569 7.5 13 8.84315 13 10.5Z" stroke="#AEAEAE" stroke-width="2" stroke-linecap="round" stroke-linejoin="round"/>
</svg>
