<svg width="25" height="24" viewBox="0 0 25 24" fill="none" xmlns="http://www.w3.org/2000/svg">
<path fill-rule="evenodd" clip-rule="evenodd" d="M6.56026 4.36295C7.02888 4.83158 7.02888 5.59137 6.56026 6.06C3.27985 9.34041 3.27985 14.659 6.56025 17.9394C7.02888 18.408 7.02888 19.1678 6.56025 19.6365C6.09162 20.1051 5.33183 20.1051 4.8632 19.6365C0.645536 15.4188 0.645536 8.58061 4.8632 4.36295C5.33183 3.89432 6.09163 3.89432 6.56026 4.36295ZM18.4397 4.36323C18.9083 3.8946 19.6681 3.8946 20.1367 4.36323C24.3544 8.58089 24.3544 15.4191 20.1367 19.6367C19.6681 20.1054 18.9083 20.1054 18.4397 19.6367C17.971 19.1681 17.971 18.4083 18.4397 17.9397C21.7201 14.6593 21.7201 9.34069 18.4397 6.06028C17.971 5.59165 17.971 4.83185 18.4397 4.36323ZM9.95437 7.75706C10.423 8.22569 10.423 8.98549 9.95437 9.45412C8.54849 10.86 8.54849 13.1394 9.95437 14.5453C10.423 15.0139 10.423 15.7737 9.95437 16.2423C9.48574 16.711 8.72595 16.711 8.25732 16.2423C5.91417 13.8992 5.91417 10.1002 8.25732 7.75706C8.72595 7.28843 9.48574 7.28843 9.95437 7.75706ZM15.0455 7.75734C15.5142 7.28871 16.274 7.28871 16.7426 7.75734C19.0857 10.1005 19.0857 13.8995 16.7426 16.2426C16.274 16.7112 15.5142 16.7112 15.0455 16.2426C14.5769 15.774 14.5769 15.0142 15.0455 14.5456C16.4514 13.1397 16.4514 10.8603 15.0455 9.45439C14.5769 8.98576 14.5769 8.22597 15.0455 7.75734ZM12.5 10.8C13.1627 10.8 13.7 11.3372 13.7 12V12.012C13.7 12.6747 13.1627 13.212 12.5 13.212C11.8372 13.212 11.3 12.6747 11.3 12.012V12C11.3 11.3372 11.8372 10.8 12.5 10.8Z" fill="white"/>
</svg>
